<?xml version="1.0" encoding="utf-8"?>
<!-- Generator: Adobe Illustrator 15.0.0, SVG Export Plug-In . SVG Version: 6.00 Build 0)  -->
<!DOCTYPE svg PUBLIC "-//W3C//DTD SVG 1.1//EN" "http://www.w3.org/Graphics/SVG/1.1/DTD/svg11.dtd">
<svg version="1.1" xmlns="http://www.w3.org/2000/svg" xmlns:xlink="http://www.w3.org/1999/xlink" x="0px" y="0px"
	 width="583.871px" height="238.709px" viewBox="0 0 583.871 238.709" enable-background="new 0 0 583.871 238.709"
	 xml:space="preserve">
<g id="Warstwa_3">
</g>
<g id="Warstwa_6">
	<path fill="#FFFFFF" d="M229.09,63.243l-20.096-30.711l-14.718,11.129l27.367,25.212C223.791,66.611,226.304,64.703,229.09,63.243z
		"/>
	<g>
		<path fill="#1D436F" d="M253.375,191.515c-2.595,3.665-5.855,6.234-9.781,7.708c-3.926,1.473-8.387,2.21-13.383,2.21
			c-9.798,0-17.747-1.797-23.846-5.39c-1.946-1.079-2.563-2.696-1.849-4.852l3.407-10.025c0.908-2.515,2.4-3.27,4.477-2.264
			c4.737,2.156,9.344,3.234,13.821,3.234c6.553,0,9.83-1.509,9.83-4.528c0-1.293-0.746-2.408-2.238-3.341
			c-1.492-0.934-3.991-2.049-7.495-3.342c-2.531-0.934-4.64-1.779-6.326-2.534c-1.687-0.754-3.569-1.85-5.646-3.288
			c-2.076-1.438-3.731-3-4.964-4.689c-1.233-1.688-2.271-3.845-3.115-6.468c-0.843-2.624-1.265-5.588-1.265-8.894
			c0-14.877,8.856-22.315,26.571-22.315c8.565,0,15.573,1.653,21.023,4.958c1.947,1.15,2.563,2.767,1.849,4.852l-3.309,9.486
			c-0.843,2.3-2.336,3.055-4.477,2.264c-4.089-1.509-8.371-2.264-12.848-2.264c-2.466,0-4.348,0.251-5.646,0.755
			s-1.946,1.545-1.946,3.126c0,1.294,0.729,2.443,2.19,3.45c1.46,1.006,3.942,2.228,7.446,3.665l4.282,1.779
			c0.779,0.323,2.044,0.898,3.796,1.725c1.752,0.827,3.001,1.527,3.748,2.103c0.747,0.574,1.769,1.365,3.066,2.372
			c1.297,1.006,2.238,2.012,2.822,3.019c0.583,1.006,1.216,2.192,1.898,3.557c0.681,1.366,1.151,2.893,1.411,4.582
			c0.259,1.689,0.39,3.54,0.39,5.553C257.27,183.25,255.972,187.85,253.375,191.515z"/>
		<path fill="#1D436F" d="M285.885,170.817v10.025h23.943c2.336,0,3.504,1.293,3.504,3.881v11.643c0,2.587-1.167,3.881-3.504,3.881
			H268.56c-2.336,0-3.504-1.294-3.504-3.881v-68.564c0-2.587,1.168-3.88,3.504-3.88h40.684c2.335,0,3.504,1.293,3.504,3.88v11.644
			c0,2.587-1.169,3.881-3.504,3.881h-23.359v8.947h21.898c2.271,0,3.407,1.294,3.407,3.881v10.889c0,2.515-1.136,3.773-3.407,3.773
			H285.885z"/>
		<path fill="#1D436F" d="M369.004,191.515c-2.595,3.665-5.856,6.234-9.781,7.708c-3.926,1.473-8.387,2.21-13.383,2.21
			c-9.798,0-17.747-1.797-23.846-5.39c-1.946-1.079-2.563-2.696-1.85-4.852l3.407-10.025c0.908-2.515,2.4-3.27,4.477-2.264
			c4.737,2.156,9.344,3.234,13.821,3.234c6.553,0,9.83-1.509,9.83-4.528c0-1.293-0.746-2.408-2.238-3.341
			c-1.492-0.934-3.991-2.049-7.495-3.342c-2.53-0.934-4.639-1.779-6.326-2.534c-1.687-0.754-3.568-1.85-5.645-3.288
			c-2.076-1.438-3.731-3-4.964-4.689c-1.233-1.688-2.271-3.845-3.115-6.468c-0.844-2.624-1.265-5.588-1.265-8.894
			c0-14.877,8.856-22.315,26.571-22.315c8.564,0,15.572,1.653,21.022,4.958c1.947,1.15,2.563,2.767,1.85,4.852l-3.309,9.486
			c-0.843,2.3-2.336,3.055-4.477,2.264c-4.089-1.509-8.371-2.264-12.848-2.264c-2.466,0-4.348,0.251-5.646,0.755
			s-1.946,1.545-1.946,3.126c0,1.294,0.729,2.443,2.19,3.45c1.459,1.006,3.941,2.228,7.445,3.665l4.282,1.779
			c0.779,0.323,2.044,0.898,3.796,1.725c1.752,0.827,3.001,1.527,3.748,2.103c0.747,0.574,1.768,1.365,3.066,2.372
			c1.297,1.006,2.239,2.012,2.822,3.019c0.584,1.006,1.217,2.192,1.898,3.557c0.681,1.366,1.151,2.893,1.411,4.582
			c0.26,1.689,0.39,3.54,0.39,5.553C372.898,183.25,371.6,187.85,369.004,191.515z"/>
		<path fill="#1D436F" d="M417.768,123.921c2.077,0,3.472,1.15,4.186,3.45l20.147,68.24c0.455,1.366,0.422,2.479-0.097,3.341
			c-0.519,0.862-1.362,1.294-2.531,1.294h-14.793c-2.272,0-3.699-1.187-4.283-3.558l-2.142-8.3h-18.59l-2.043,8.3
			c-0.584,2.372-2.012,3.558-4.283,3.558h-14.795c-1.167,0-2.011-0.432-2.53-1.294s-0.551-1.976-0.097-3.341l20.147-68.24
			c0.714-2.3,2.109-3.45,4.186-3.45H417.768z M414.75,169.199l-5.547-22.207h-0.292l-5.937,22.207H414.75z"/>
		<path fill="#1D436F" d="M481.326,184.507l-12.458-23.178v35.037c0,2.587-1.168,3.881-3.504,3.881h-13.431
			c-2.336,0-3.504-1.294-3.504-3.881v-68.564c0-2.587,1.167-3.88,3.504-3.88h12.944c1.882,0,3.212,0.719,3.991,2.156l14.989,28.569
			l14.989-28.569c0.779-1.437,2.109-2.156,3.991-2.156h12.944c2.336,0,3.504,1.293,3.504,3.88v68.564
			c0,2.587-1.167,3.881-3.504,3.881H502.35c-2.336,0-3.504-1.294-3.504-3.881v-35.037l-12.458,23.178
			c-0.583,1.079-1.427,1.618-2.53,1.618C482.753,186.125,481.91,185.585,481.326,184.507z"/>
		<path fill="#1D436F" d="M550.237,170.817v10.025h23.943c2.336,0,3.504,1.293,3.504,3.881v11.643c0,2.587-1.167,3.881-3.504,3.881
			h-41.268c-2.336,0-3.504-1.294-3.504-3.881v-68.564c0-2.587,1.168-3.88,3.504-3.88h40.684c2.335,0,3.504,1.293,3.504,3.88v11.644
			c0,2.587-1.169,3.881-3.504,3.881h-23.359v8.947h21.898c2.271,0,3.407,1.294,3.407,3.881v10.889c0,2.515-1.136,3.773-3.407,3.773
			H550.237z"/>
	</g>
	<path fill="#FFFFFF" d="M231.313,59.976l-21-32.093l-15.38,11.629l28.599,26.347C225.775,63.496,228.401,61.501,231.313,59.976z"/>
	<g>
		<rect x="5.305" y="208.604" fill="#1D436F" width="572.646" height="1.79"/>
	</g>
	
		<path fill="none" stroke="#006633" stroke-width="6.3317" stroke-linecap="round" stroke-linejoin="round" stroke-miterlimit="10" d="
		M19.826,174.259"/>
	<g>
		<path fill="#1D436F" d="M7.791,233.636c-0.825,0-1.536-0.083-2.133-0.249c-0.17-0.055-0.256-0.151-0.256-0.29v-0.519
			c0-0.18,0.092-0.242,0.277-0.187c0.54,0.167,1.209,0.25,2.005,0.25c1.707,0,2.559-0.851,2.559-2.551
			c0-0.802-0.192-1.458-0.575-1.97c-0.385-0.512-0.996-1.1-1.835-1.763c-0.796-0.622-1.408-1.244-1.835-1.867
			c-0.426-0.622-0.639-1.417-0.639-2.384c0-1.093,0.259-1.925,0.778-2.499c0.519-0.573,1.397-0.86,2.634-0.86
			c0.654,0,1.252,0.069,1.792,0.207c0.157,0.056,0.234,0.16,0.234,0.312v0.497c0,0.18-0.1,0.25-0.298,0.208
			c-0.512-0.152-1.074-0.229-1.685-0.229c-0.853,0-1.458,0.201-1.813,0.602c-0.355,0.4-0.534,0.988-0.534,1.763
			c0,0.759,0.179,1.389,0.534,1.887c0.355,0.498,0.882,1.023,1.579,1.576c0.625,0.483,1.098,0.88,1.418,1.192
			c0.32,0.311,0.626,0.763,0.917,1.358c0.292,0.594,0.438,1.258,0.438,1.99C11.353,232.461,10.166,233.636,7.791,233.636z"/>
		<path fill="#1D436F" d="M23.338,226.502v5.931h4.373c0.156,0,0.235,0.075,0.235,0.228v0.559c0,0.153-0.079,0.229-0.235,0.229
			h-5.248c-0.157,0-0.235-0.076-0.235-0.229v-14.08c0-0.151,0.078-0.228,0.235-0.228h5.184c0.156,0,0.234,0.077,0.234,0.228v0.561
			c0,0.151-0.079,0.227-0.234,0.227h-4.309v5.579h4.16c0.17,0,0.256,0.076,0.256,0.229v0.539c0,0.153-0.085,0.228-0.256,0.228
			H23.338z"/>
		<path fill="#1D436F" d="M44.516,232.391c0.199-0.041,0.299,0.028,0.299,0.208v0.478c0,0.138-0.085,0.234-0.256,0.29
			c-0.512,0.167-1.095,0.25-1.749,0.25c-1.621,0-2.777-0.553-3.467-1.659s-1.034-3.034-1.034-5.786c0-2.737,0.341-4.659,1.024-5.764
			c0.683-1.107,1.827-1.659,3.435-1.659c0.625,0,1.188,0.076,1.685,0.227c0.157,0.056,0.234,0.153,0.234,0.292v0.476
			c0,0.18-0.092,0.249-0.276,0.208c-0.555-0.125-1.067-0.187-1.536-0.187c-1.266,0-2.155,0.464-2.667,1.39
			c-0.511,0.926-0.768,2.599-0.768,5.018s0.26,4.096,0.779,5.029s1.425,1.399,2.72,1.399
			C43.521,232.599,44.047,232.53,44.516,232.391z"/>
		<path fill="#1D436F" d="M56.436,232.599c-0.555-0.677-0.832-1.791-0.832-3.338v-10.12c0-0.151,0.078-0.228,0.234-0.228h0.64
			c0.156,0,0.235,0.077,0.235,0.228v10.037c0,1.258,0.181,2.146,0.544,2.664c0.362,0.519,0.999,0.779,1.909,0.779
			c0.924,0,1.567-0.26,1.931-0.779c0.362-0.518,0.544-1.406,0.544-2.664v-10.037c0-0.151,0.078-0.228,0.234-0.228h0.64
			c0.156,0,0.235,0.077,0.235,0.228v10.12c0,1.547-0.282,2.661-0.843,3.338c-0.562,0.678-1.476,1.017-2.741,1.017
			S56.991,233.276,56.436,232.599z"/>
		<path fill="#1D436F" d="M76.632,218.913c1.578,0,2.688,0.346,3.328,1.037c0.64,0.691,0.959,1.887,0.959,3.587
			c0,1.452-0.23,2.527-0.692,3.225c-0.463,0.698-1.191,1.123-2.187,1.275l2.645,5.143c0.1,0.18,0.05,0.27-0.149,0.27h-0.683
			c-0.128,0-0.228-0.063-0.299-0.187l-2.623-5.122h-1.792v5.08c0,0.153-0.078,0.229-0.234,0.229h-0.641
			c-0.156,0-0.234-0.076-0.234-0.229v-14.08c0-0.151,0.078-0.228,0.234-0.228H76.632z M76.739,227.125
			c1.138,0,1.927-0.252,2.368-0.758c0.44-0.503,0.661-1.447,0.661-2.83c0-1.396-0.224-2.346-0.672-2.851
			c-0.448-0.504-1.276-0.757-2.485-0.757h-1.472v7.196H76.739z"/>
		<path fill="#1D436F" d="M93.053,226.502v5.931h4.374c0.156,0,0.234,0.075,0.234,0.228v0.559c0,0.153-0.078,0.229-0.234,0.229
			h-5.249c-0.156,0-0.234-0.076-0.234-0.229v-14.08c0-0.151,0.078-0.228,0.234-0.228h5.184c0.156,0,0.235,0.077,0.235,0.228v0.561
			c0,0.151-0.079,0.227-0.235,0.227h-4.309v5.579h4.16c0.171,0,0.255,0.076,0.255,0.229v0.539c0,0.153-0.084,0.228-0.255,0.228
			H93.053z"/>
		<path fill="#1D436F" d="M125.554,218.913c0.171,0,0.277,0.077,0.32,0.228l3.477,14.059c0.043,0.166-0.021,0.25-0.191,0.25h-0.641
			c-0.142,0-0.228-0.069-0.256-0.208l-1.023-4.043h-4.245l-1.003,4.043c-0.028,0.138-0.113,0.208-0.256,0.208h-0.64
			c-0.171,0-0.235-0.083-0.192-0.25l3.478-14.059c0.042-0.151,0.149-0.228,0.319-0.228H125.554z M127.004,228.203l-1.855-7.901
			h-0.043l-1.855,7.901H127.004z"/>
		<path fill="#1D436F" d="M147.373,233.22c0,0.153-0.078,0.229-0.234,0.229h-0.619c-0.171,0-0.284-0.069-0.341-0.208l-5.12-11.882
			v11.861c0,0.153-0.078,0.229-0.234,0.229h-0.598c-0.156,0-0.234-0.076-0.234-0.229v-14.08c0-0.151,0.078-0.228,0.234-0.228h0.619
			c0.156,0,0.263,0.069,0.319,0.208l5.12,11.882v-11.861c0-0.151,0.078-0.228,0.234-0.228h0.619c0.156,0,0.234,0.077,0.234,0.228
			V233.22z"/>
		<path fill="#1D436F" d="M158.951,233.449c-0.156,0-0.234-0.076-0.234-0.229v-14.08c0-0.151,0.078-0.228,0.234-0.228h2.453
			c1.636,0,2.845,0.536,3.627,1.607s1.173,2.955,1.173,5.651c0,2.709-0.388,4.6-1.162,5.671c-0.775,1.071-1.98,1.608-3.616,1.608
			H158.951z M159.826,219.928v12.505h1.6c0.825,0,1.49-0.172,1.994-0.518c0.505-0.346,0.903-0.989,1.195-1.929
			c0.291-0.94,0.437-2.212,0.437-3.816c0-1.603-0.146-2.872-0.437-3.805c-0.292-0.933-0.693-1.572-1.205-1.918
			c-0.513-0.346-1.181-0.519-2.006-0.519H159.826z"/>
		<path fill="#1D436F" d="M192.156,233.636c-0.825,0-1.536-0.083-2.134-0.249c-0.171-0.055-0.256-0.151-0.256-0.29v-0.519
			c0-0.18,0.093-0.242,0.277-0.187c0.54,0.167,1.209,0.25,2.005,0.25c1.707,0,2.561-0.851,2.561-2.551
			c0-0.802-0.192-1.458-0.576-1.97c-0.384-0.512-0.996-1.1-1.835-1.763c-0.796-0.622-1.407-1.244-1.834-1.867
			c-0.427-0.622-0.641-1.417-0.641-2.384c0-1.093,0.26-1.925,0.779-2.499c0.519-0.573,1.396-0.86,2.633-0.86
			c0.655,0,1.252,0.069,1.792,0.207c0.156,0.056,0.235,0.16,0.235,0.312v0.497c0,0.18-0.1,0.25-0.299,0.208
			c-0.513-0.152-1.074-0.229-1.686-0.229c-0.854,0-1.458,0.201-1.813,0.602c-0.356,0.4-0.533,0.988-0.533,1.763
			c0,0.759,0.177,1.389,0.533,1.887c0.355,0.498,0.882,1.023,1.579,1.576c0.626,0.483,1.099,0.88,1.418,1.192
			c0.32,0.311,0.626,0.763,0.918,1.358c0.291,0.594,0.437,1.258,0.437,1.99C195.717,232.461,194.531,233.636,192.156,233.636z"/>
		<path fill="#1D436F" d="M210.54,218.913c0.171,0,0.277,0.077,0.32,0.228l3.477,14.059c0.043,0.166-0.021,0.25-0.191,0.25h-0.641
			c-0.142,0-0.228-0.069-0.256-0.208l-1.023-4.043h-4.245l-1.003,4.043c-0.028,0.138-0.113,0.208-0.256,0.208h-0.64
			c-0.171,0-0.235-0.083-0.192-0.25l3.478-14.059c0.042-0.151,0.149-0.228,0.319-0.228H210.54z M211.99,228.203l-1.855-7.901h-0.043
			l-1.855,7.901H211.99z"/>
		<path fill="#1D436F" d="M226.085,226.585v6.635c0,0.153-0.078,0.229-0.234,0.229h-0.641c-0.156,0-0.234-0.076-0.234-0.229v-14.08
			c0-0.151,0.078-0.228,0.234-0.228h5.142c0.156,0,0.234,0.077,0.234,0.228v0.561c0,0.151-0.078,0.227-0.234,0.227h-4.267v5.682
			h4.139c0.156,0,0.234,0.076,0.234,0.229v0.519c0,0.152-0.078,0.228-0.234,0.228H226.085z"/>
		<path fill="#1D436F" d="M242.464,226.502v5.931h4.373c0.156,0,0.234,0.075,0.234,0.228v0.559c0,0.153-0.078,0.229-0.234,0.229
			h-5.248c-0.156,0-0.234-0.076-0.234-0.229v-14.08c0-0.151,0.078-0.228,0.234-0.228h5.184c0.156,0,0.235,0.077,0.235,0.228v0.561
			c0,0.151-0.079,0.227-0.235,0.227h-4.309v5.579h4.159c0.171,0,0.256,0.076,0.256,0.229v0.539c0,0.153-0.085,0.228-0.256,0.228
			H242.464z"/>
		<path fill="#1D436F" d="M275.136,228.887l-3.05-7.362v11.695c0,0.153-0.078,0.229-0.234,0.229h-0.598
			c-0.156,0-0.234-0.076-0.234-0.229v-14.08c0-0.151,0.078-0.228,0.234-0.228h0.619c0.128,0,0.22,0.055,0.277,0.166l3.242,8.024
			l3.242-8.024c0.057-0.111,0.149-0.166,0.277-0.166h0.64c0.157,0,0.235,0.077,0.235,0.228v14.08c0,0.153-0.078,0.229-0.235,0.229
			h-0.618c-0.156,0-0.234-0.076-0.234-0.229v-11.695l-3.051,7.362c-0.043,0.111-0.128,0.166-0.256,0.166
			S275.178,228.998,275.136,228.887z"/>
		<path fill="#1D436F" d="M291.875,232.599c-0.555-0.677-0.832-1.791-0.832-3.338v-10.12c0-0.151,0.079-0.228,0.235-0.228h0.64
			c0.156,0,0.234,0.077,0.234,0.228v10.037c0,1.258,0.182,2.146,0.544,2.664c0.363,0.519,0.999,0.779,1.909,0.779
			c0.925,0,1.568-0.26,1.931-0.779c0.363-0.518,0.544-1.406,0.544-2.664v-10.037c0-0.151,0.078-0.228,0.234-0.228h0.641
			c0.156,0,0.234,0.077,0.234,0.228v10.12c0,1.547-0.281,2.661-0.843,3.338c-0.562,0.678-1.476,1.017-2.741,1.017
			S292.43,233.276,291.875,232.599z"/>
		<path fill="#1D436F" d="M310.58,232.433h3.989c0.17,0,0.256,0.083,0.256,0.249v0.539c0,0.153-0.086,0.229-0.256,0.229h-4.864
			c-0.156,0-0.234-0.076-0.234-0.229v-14.08c0-0.151,0.078-0.228,0.234-0.228h0.641c0.156,0,0.234,0.077,0.234,0.228V232.433z"/>
		<path fill="#1D436F" d="M323.31,219.141c0-0.151,0.078-0.228,0.235-0.228h5.888c0.156,0,0.234,0.077,0.234,0.228v0.561
			c0,0.151-0.078,0.227-0.234,0.227h-2.39v13.292c0,0.153-0.078,0.229-0.234,0.229h-0.641c-0.156,0-0.234-0.076-0.234-0.229v-13.292
			h-2.389c-0.157,0-0.235-0.076-0.235-0.227V219.141z"/>
		<path fill="#1D436F" d="M340.372,219.141c0-0.151,0.078-0.228,0.234-0.228h0.641c0.156,0,0.234,0.077,0.234,0.228v14.08
			c0,0.153-0.078,0.229-0.234,0.229h-0.641c-0.156,0-0.234-0.076-0.234-0.229V219.141z"/>
		<path fill="#1D436F" d="M352.699,228.327c-0.143,0-0.214-0.07-0.214-0.207v-0.498c0-0.138,0.072-0.207,0.214-0.207h3.711
			c0.157,0,0.235,0.069,0.235,0.207v0.498c0,0.137-0.078,0.207-0.235,0.207H352.699z"/>
		<path fill="#1D436F" d="M370.144,218.913c1.578,0,2.688,0.346,3.328,1.037c0.64,0.691,0.958,1.887,0.958,3.587
			c0,1.452-0.23,2.527-0.692,3.225c-0.463,0.698-1.192,1.123-2.187,1.275l2.645,5.143c0.1,0.18,0.05,0.27-0.15,0.27h-0.682
			c-0.128,0-0.228-0.063-0.299-0.187l-2.623-5.122h-1.792v5.08c0,0.153-0.079,0.229-0.234,0.229h-0.641
			c-0.156,0-0.234-0.076-0.234-0.229v-14.08c0-0.151,0.078-0.228,0.234-0.228H370.144z M370.25,227.125
			c1.138,0,1.926-0.252,2.368-0.758c0.441-0.503,0.662-1.447,0.662-2.83c0-1.396-0.224-2.346-0.672-2.851
			c-0.448-0.504-1.276-0.757-2.486-0.757h-1.471v7.196H370.25z"/>
		<path fill="#1D436F" d="M392.303,220.437c0.668,1.127,1.003,3.038,1.003,5.734c0,2.709-0.334,4.628-1.003,5.754
			c-0.668,1.127-1.714,1.691-3.135,1.691c-1.437,0-2.488-0.563-3.158-1.691c-0.667-1.125-1.002-3.044-1.002-5.754
			c0-2.696,0.335-4.607,1.002-5.734c0.669-1.126,1.714-1.689,3.136-1.689C390.583,218.747,391.635,219.311,392.303,220.437z
			 M391.438,231.178c0.477-0.975,0.715-2.644,0.715-5.008s-0.238-4.03-0.715-4.998c-0.476-0.968-1.24-1.451-2.292-1.451
			c-1.053,0-1.816,0.483-2.293,1.451c-0.477,0.968-0.715,2.634-0.715,4.998s0.238,4.033,0.715,5.008
			c0.477,0.975,1.24,1.462,2.293,1.462C390.199,232.641,390.962,232.153,391.438,231.178z"/>
		<path fill="#1D436F" d="M404.542,233.449c-0.157,0-0.234-0.076-0.234-0.229v-14.08c0-0.151,0.078-0.228,0.234-0.228h2.986
			c1.295,0,2.272,0.287,2.934,0.861c0.661,0.573,0.992,1.503,0.992,2.789c0,0.968-0.199,1.721-0.598,2.26s-0.889,0.885-1.472,1.037
			c1.579,0.359,2.368,1.563,2.368,3.608c0,1.41-0.358,2.426-1.077,3.048c-0.718,0.622-1.774,0.934-3.168,0.934H404.542z
			 M407.422,225.466c0.996,0,1.732-0.231,2.208-0.696c0.477-0.462,0.715-1.184,0.715-2.167c0-1.008-0.228-1.709-0.683-2.104
			c-0.455-0.394-1.188-0.591-2.197-0.591h-2.069v5.558H407.422z M407.444,232.454c1.081,0,1.881-0.231,2.399-0.695
			c0.52-0.462,0.779-1.247,0.779-2.353c0-1.036-0.246-1.793-0.736-2.271c-0.49-0.477-1.261-0.715-2.314-0.715h-2.176v6.034H407.444z
			"/>
		<path fill="#1D436F" d="M429.475,220.437c0.668,1.127,1.003,3.038,1.003,5.734c0,2.709-0.335,4.628-1.003,5.754
			c-0.668,1.127-1.714,1.691-3.136,1.691c-1.436,0-2.488-0.563-3.157-1.691c-0.668-1.125-1.003-3.044-1.003-5.754
			c0-2.696,0.334-4.607,1.003-5.734c0.669-1.126,1.714-1.689,3.136-1.689C427.754,218.747,428.807,219.311,429.475,220.437z
			 M428.611,231.178c0.477-0.975,0.715-2.644,0.715-5.008s-0.238-4.03-0.715-4.998s-1.24-1.451-2.293-1.451
			s-1.817,0.483-2.293,1.451c-0.477,0.968-0.715,2.634-0.715,4.998s0.239,4.033,0.715,5.008c0.476,0.975,1.24,1.462,2.293,1.462
			S428.134,232.153,428.611,231.178z"/>
		<path fill="#1D436F" d="M439.987,219.141c0-0.151,0.079-0.228,0.235-0.228h5.887c0.157,0,0.234,0.077,0.234,0.228v0.561
			c0,0.151-0.078,0.227-0.234,0.227h-2.389v13.292c0,0.153-0.078,0.229-0.234,0.229h-0.641c-0.157,0-0.234-0.076-0.234-0.229
			v-13.292h-2.389c-0.156,0-0.235-0.076-0.235-0.227V219.141z"/>
		<path fill="#1D436F" d="M471.913,233.636c-0.825,0-1.537-0.083-2.134-0.249c-0.171-0.055-0.256-0.151-0.256-0.29v-0.519
			c0-0.18,0.093-0.242,0.277-0.187c0.54,0.167,1.209,0.25,2.005,0.25c1.707,0,2.561-0.851,2.561-2.551
			c0-0.802-0.192-1.458-0.577-1.97c-0.384-0.512-0.996-1.1-1.834-1.763c-0.796-0.622-1.408-1.244-1.834-1.867
			c-0.427-0.622-0.641-1.417-0.641-2.384c0-1.093,0.26-1.925,0.779-2.499c0.519-0.573,1.396-0.86,2.634-0.86
			c0.654,0,1.252,0.069,1.792,0.207c0.157,0.056,0.236,0.16,0.236,0.312v0.497c0,0.18-0.1,0.25-0.299,0.208
			c-0.513-0.152-1.075-0.229-1.686-0.229c-0.854,0-1.458,0.201-1.814,0.602c-0.355,0.4-0.533,0.988-0.533,1.763
			c0,0.759,0.178,1.389,0.533,1.887c0.356,0.498,0.882,1.023,1.579,1.576c0.626,0.483,1.099,0.88,1.418,1.192
			c0.32,0.311,0.626,0.763,0.918,1.358c0.291,0.594,0.437,1.258,0.437,1.99C475.474,232.461,474.287,233.636,471.913,233.636z"/>
		<path fill="#1D436F" d="M489.956,233.22c0,0.153-0.078,0.229-0.234,0.229h-0.641c-0.156,0-0.234-0.076-0.234-0.229v-5.412
			l-3.435-8.646c-0.057-0.166,0-0.249,0.171-0.249h0.704c0.141,0,0.234,0.069,0.277,0.208l2.027,5.267l0.789,2.24h0.042l0.79-2.24
			l2.026-5.267c0.042-0.139,0.134-0.208,0.277-0.208h0.704c0.171,0,0.228,0.083,0.171,0.249l-3.435,8.646V233.22z"/>
		<path fill="#1D436F" d="M505.908,233.636c-0.825,0-1.536-0.083-2.134-0.249c-0.171-0.055-0.256-0.151-0.256-0.29v-0.519
			c0-0.18,0.093-0.242,0.277-0.187c0.54,0.167,1.209,0.25,2.005,0.25c1.707,0,2.561-0.851,2.561-2.551
			c0-0.802-0.193-1.458-0.576-1.97c-0.384-0.512-0.996-1.1-1.835-1.763c-0.796-0.622-1.407-1.244-1.834-1.867
			c-0.427-0.622-0.641-1.417-0.641-2.384c0-1.093,0.259-1.925,0.779-2.499c0.518-0.573,1.396-0.86,2.634-0.86
			c0.654,0,1.252,0.069,1.792,0.207c0.156,0.056,0.235,0.16,0.235,0.312v0.497c0,0.18-0.1,0.25-0.299,0.208
			c-0.513-0.152-1.074-0.229-1.686-0.229c-0.853,0-1.458,0.201-1.813,0.602c-0.355,0.4-0.533,0.988-0.533,1.763
			c0,0.759,0.178,1.389,0.533,1.887s0.882,1.023,1.579,1.576c0.625,0.483,1.099,0.88,1.418,1.192
			c0.32,0.311,0.626,0.763,0.918,1.358c0.291,0.594,0.436,1.258,0.436,1.99C509.469,232.461,508.283,233.636,505.908,233.636z"/>
		<path fill="#1D436F" d="M519.192,219.141c0-0.151,0.079-0.228,0.235-0.228h5.888c0.156,0,0.234,0.077,0.234,0.228v0.561
			c0,0.151-0.078,0.227-0.234,0.227h-2.39v13.292c0,0.153-0.078,0.229-0.234,0.229h-0.641c-0.156,0-0.234-0.076-0.234-0.229v-13.292
			h-2.389c-0.156,0-0.235-0.076-0.235-0.227V219.141z"/>
		<path fill="#1D436F" d="M537.256,226.502v5.931h4.373c0.156,0,0.234,0.075,0.234,0.228v0.559c0,0.153-0.078,0.229-0.234,0.229
			h-5.248c-0.156,0-0.234-0.076-0.234-0.229v-14.08c0-0.151,0.078-0.228,0.234-0.228h5.184c0.156,0,0.235,0.077,0.235,0.228v0.561
			c0,0.151-0.079,0.227-0.235,0.227h-4.309v5.579h4.159c0.171,0,0.256,0.076,0.256,0.229v0.539c0,0.153-0.085,0.228-0.256,0.228
			H537.256z"/>
		<path fill="#1D436F" d="M556.92,228.887l-3.051-7.362v11.695c0,0.153-0.078,0.229-0.235,0.229h-0.597
			c-0.157,0-0.234-0.076-0.234-0.229v-14.08c0-0.151,0.078-0.228,0.234-0.228h0.619c0.128,0,0.219,0.055,0.277,0.166l3.242,8.024
			l3.242-8.024c0.057-0.111,0.15-0.166,0.278-0.166h0.639c0.158,0,0.236,0.077,0.236,0.228v14.08c0,0.153-0.078,0.229-0.236,0.229
			h-0.618c-0.156,0-0.234-0.076-0.234-0.229v-11.695l-3.051,7.362c-0.043,0.111-0.128,0.166-0.256,0.166
			S556.962,228.998,556.92,228.887z"/>
		<path fill="#1D436F" d="M574.855,233.636c-0.825,0-1.537-0.083-2.134-0.249c-0.171-0.055-0.256-0.151-0.256-0.29v-0.519
			c0-0.18,0.093-0.242,0.277-0.187c0.54,0.167,1.208,0.25,2.004,0.25c1.708,0,2.561-0.851,2.561-2.551
			c0-0.802-0.192-1.458-0.576-1.97c-0.384-0.512-0.996-1.1-1.835-1.763c-0.796-0.622-1.407-1.244-1.834-1.867
			c-0.427-0.622-0.641-1.417-0.641-2.384c0-1.093,0.26-1.925,0.779-2.499c0.519-0.573,1.397-0.86,2.634-0.86
			c0.655,0,1.252,0.069,1.792,0.207c0.156,0.056,0.235,0.16,0.235,0.312v0.497c0,0.18-0.1,0.25-0.299,0.208
			c-0.512-0.152-1.074-0.229-1.685-0.229c-0.854,0-1.458,0.201-1.813,0.602c-0.355,0.4-0.533,0.988-0.533,1.763
			c0,0.759,0.178,1.389,0.533,1.887s0.882,1.023,1.579,1.576c0.626,0.483,1.099,0.88,1.418,1.192
			c0.32,0.311,0.626,0.763,0.918,1.358c0.291,0.594,0.437,1.258,0.437,1.99C578.417,232.461,577.23,233.636,574.855,233.636z"/>
	</g>
	
		<path fill="none" stroke="#006633" stroke-width="6.3796" stroke-linecap="round" stroke-linejoin="round" stroke-miterlimit="10" d="
		M277.308-76.7"/>
	<g>
		<path fill="#C9961A" d="M39.725,200.792c-9.261,0-17.968-3.607-24.516-10.155c-6.548-6.548-10.154-15.254-10.154-24.516
			c0-9.261,3.606-17.967,10.154-24.515c6.549-6.548,15.255-10.155,24.516-10.155s17.967,3.606,24.516,10.155
			c6.548,6.548,10.154,15.254,10.154,24.515c0,9.261-3.606,17.968-10.154,24.516C57.692,197.185,48.986,200.792,39.725,200.792z
			 M39.725,135.978c-7.723,0-15.445,2.94-21.325,8.819c-11.758,11.758-11.758,30.89,0,42.649c5.696,5.696,13.269,8.833,21.325,8.833
			c8.055,0,15.629-3.137,21.324-8.833c11.759-11.759,11.759-30.891,0-42.649C55.17,138.918,47.448,135.978,39.725,135.978z"/>
	</g>
	<g>
		<path fill="#1D71B8" d="M41.542,84.095c-9.261,0-17.967-3.606-24.516-10.155c-13.518-13.518-13.518-35.513,0-49.032
			c6.549-6.548,15.255-10.154,24.516-10.154s17.967,3.606,24.516,10.154l0,0c13.518,13.519,13.518,35.514,0,49.032
			C59.508,80.488,50.802,84.095,41.542,84.095z M41.542,19.281c-7.723,0-15.445,2.939-21.325,8.819
			c-11.758,11.758-11.758,30.891,0,42.649c11.758,11.759,30.891,11.759,42.649,0c11.759-11.758,11.759-30.891,0-42.649
			C56.987,22.22,49.264,19.281,41.542,19.281z"/>
	</g>
	<g>
		<path fill="#BE1622" d="M156.313,198.866c-9.261,0-17.967-3.606-24.516-10.155c-6.548-6.548-10.155-15.255-10.155-24.516
			s3.606-17.967,10.155-24.516c6.549-6.548,15.255-10.154,24.516-10.154s17.967,3.606,24.516,10.154l0,0l0,0
			c6.548,6.548,10.155,15.255,10.155,24.516s-3.606,17.967-10.155,24.516C174.279,195.259,165.573,198.866,156.313,198.866z
			 M156.313,134.052c-7.723,0-15.446,2.94-21.324,8.819c-5.697,5.696-8.833,13.269-8.833,21.324s3.137,15.628,8.833,21.324
			c11.757,11.759,30.891,11.759,42.648,0c5.697-5.696,8.833-13.269,8.833-21.324s-3.137-15.628-8.833-21.324l0,0
			C171.758,136.992,164.035,134.052,156.313,134.052z"/>
	</g>
	<path fill="#1D436F" d="M125.723,54.597c-14.769,14.768-38.713,14.768-53.481,0L61.735,44.09
		c-6.921-6.921-18.198-7.434-25.36-0.763c-7.52,7.003-7.677,18.781-0.473,25.985l10.812,10.812
		c14.769,14.769,14.769,38.713,0,53.481l-10.505,10.506c-6.921,6.92-7.434,18.197-0.764,25.359
		c7.003,7.52,18.781,7.678,25.985,0.474l10.812-10.812c14.769-14.768,38.713-14.768,53.481,0l10.506,10.506
		c6.921,6.921,18.198,7.434,25.36,0.763c7.52-7.003,7.677-18.781,0.474-25.985l-10.812-10.812
		c-14.769-14.769-14.769-38.713,0-53.481L125.723,54.597z"/>
	<path fill="#1D71B8" d="M232.197,60.247c1.703-0.893,3.507-1.615,5.383-2.168l-23.342-35.672c-0.432-0.66-1.118-1.111-1.895-1.246
		c-0.775-0.134-1.575,0.059-2.203,0.534l-15.875,12.003l-11.085-13.245c-0.965-1.153-2.636-1.412-3.904-0.604L90.445,76.468
		c-0.699,0.446-1.183,1.161-1.334,1.977c-0.152,0.815,0.042,1.657,0.533,2.324l32.818,44.5c0.526,0.714,1.343,1.158,2.228,1.211
		c0.061,0.003,0.121,0.005,0.181,0.005c0.821,0,1.61-0.338,2.177-0.939L198.4,49.935l22.479,20.709
		c1.029-1.61,2.207-3.118,3.517-4.498C226.646,63.776,229.278,61.776,232.197,60.247z"/>
	<polygon fill="#FFFFFF" points="96.365,79.795 125.154,118.831 195.404,44.387 180.277,26.312 	"/>
	<path fill="#1D71B8" d="M100.446,143.978c-20.088,0-36.431-16.343-36.431-36.431s16.343-36.432,36.431-36.432
		c2.444,0,4.888,0.244,7.262,0.725c16.902,3.42,29.169,18.438,29.169,35.707C136.877,127.635,120.535,143.978,100.446,143.978z"/>
	<path fill="#FFFFFF" d="M100.446,77.971c-16.308,0-29.575,13.268-29.575,29.576c0,16.308,13.267,29.576,29.575,29.576
		s29.576-13.268,29.576-29.576c0-14.021-9.956-26.211-23.674-28.988C104.42,78.168,102.435,77.971,100.446,77.971z"/>
	<path fill="#FFFFFF" d="M232.197,60.247l-21.053-32.175l-15.419,11.659l28.671,26.415
		C226.646,63.776,229.278,61.776,232.197,60.247z"/>
	<path fill="#1D71B8" d="M245.946,56.864c-2.906,0-5.71,0.432-8.366,1.215c-1.876,0.553-3.68,1.275-5.383,2.168
		c-2.919,1.529-5.552,3.529-7.801,5.899c-1.311,1.38-2.488,2.888-3.517,4.498c-2.948,4.612-4.663,10.083-4.663,15.95
		c0,16.394,13.337,29.731,29.73,29.731c1.572,0,2.846-1.274,2.846-2.846c0-1.571-1.274-2.845-2.846-2.845
		c-13.255,0-24.04-10.784-24.04-24.04c0-4.378,1.181-8.483,3.236-12.021c0.964-1.659,2.118-3.195,3.436-4.573
		c1.195-1.251,2.52-2.377,3.959-3.348c2.486-1.677,5.305-2.892,8.331-3.546c1.638-0.354,3.334-0.55,5.077-0.55
		c13.255,0,24.04,10.784,24.04,24.039c0,0.926-0.054,1.86-0.161,2.778c-0.182,1.561,0.937,2.974,2.498,3.155
		c1.554,0.179,2.974-0.936,3.155-2.497c0.132-1.135,0.199-2.291,0.199-3.436C275.677,70.201,262.34,56.864,245.946,56.864z"/>
	<circle fill="#1D71B8" cx="100.446" cy="107.546" r="18.541"/>
	<path fill="#1D71B8" d="M196.07,49.725c-11.771,0-21.349-9.577-21.349-21.35c0-11.772,9.578-21.35,21.349-21.35
		c11.773,0,21.35,9.578,21.35,21.35C217.42,40.147,207.843,49.725,196.07,49.725z"/>
	<path fill="#FFFFFF" d="M196.07,13.013c-8.47,0-15.362,6.892-15.362,15.362c0,8.471,6.892,15.362,15.362,15.362
		c8.472,0,15.363-6.891,15.363-15.362C211.433,19.904,204.542,13.013,196.07,13.013z"/>
	<circle fill="#1D71B8" cx="196.07" cy="28.375" r="9.641"/>
</g>
</svg>
