<?xml version="1.0" encoding="utf-8"?>
<!-- Generator: Adobe Illustrator 15.0.0, SVG Export Plug-In . SVG Version: 6.00 Build 0)  -->
<!DOCTYPE svg PUBLIC "-//W3C//DTD SVG 1.1//EN" "http://www.w3.org/Graphics/SVG/1.1/DTD/svg11.dtd">
<svg version="1.1" xmlns="http://www.w3.org/2000/svg" xmlns:xlink="http://www.w3.org/1999/xlink" x="0px" y="0px" width="426px"
	 height="291px" viewBox="0 0 426 291" enable-background="new 0 0 426 291" xml:space="preserve">
<g id="Warstwa_3">
</g>
<g id="Warstwa_6">
	<g>
		<path fill="#1D436F" d="M59.892,275.224c-2.899,4.095-6.543,6.966-10.929,8.612c-4.387,1.646-9.371,2.469-14.953,2.469
			c-10.947,0-19.829-2.008-26.644-6.022c-2.175-1.205-2.864-3.012-2.066-5.421l3.807-11.202c1.015-2.81,2.682-3.653,5.002-2.529
			c5.293,2.409,10.44,3.613,15.442,3.613c7.322,0,10.983-1.687,10.983-5.059c0-1.445-0.833-2.69-2.501-3.734
			c-1.667-1.043-4.459-2.289-8.374-3.733c-2.827-1.043-5.184-1.988-7.068-2.831c-1.885-0.844-3.987-2.067-6.308-3.674
			c-2.319-1.605-4.169-3.353-5.546-5.239c-1.378-1.887-2.537-4.296-3.48-7.227c-0.942-2.932-1.413-6.244-1.413-9.938
			c0-16.622,9.896-24.934,29.688-24.934c9.569,0,17.399,1.847,23.489,5.54c2.176,1.286,2.864,3.092,2.066,5.421l-3.697,10.6
			c-0.942,2.569-2.61,3.413-5.002,2.529c-4.568-1.686-9.353-2.529-14.355-2.529c-2.755,0-4.857,0.28-6.308,0.844
			c-1.45,0.563-2.175,1.726-2.175,3.492c0,1.446,0.815,2.73,2.447,3.855c1.631,1.124,4.404,2.489,8.319,4.095l4.784,1.988
			c0.87,0.36,2.284,1.003,4.241,1.927c1.958,0.923,3.354,1.706,4.188,2.349c0.834,0.642,1.976,1.525,3.426,2.65
			c1.449,1.124,2.501,2.247,3.153,3.372c0.652,1.124,1.359,2.449,2.121,3.975c0.761,1.525,1.286,3.232,1.576,5.119
			c0.29,1.888,0.436,3.955,0.436,6.204C64.242,265.988,62.792,271.128,59.892,275.224z"/>
		<path fill="#1D436F" d="M96.215,252.097v11.202h26.752c2.61,0,3.915,1.444,3.915,4.336v13.009c0,2.891-1.305,4.336-3.915,4.336
			H76.857c-2.61,0-3.915-1.445-3.915-4.336v-76.608c0-2.89,1.305-4.335,3.915-4.335h45.457c2.609,0,3.915,1.445,3.915,4.335v13.01
			c0,2.891-1.306,4.337-3.915,4.337h-26.1v9.996h24.468c2.538,0,3.807,1.446,3.807,4.336v12.167c0,2.811-1.269,4.216-3.807,4.216
			H96.215z"/>
		<path fill="#1D436F" d="M189.085,275.224c-2.899,4.095-6.543,6.966-10.929,8.612c-4.387,1.646-9.371,2.469-14.953,2.469
			c-10.947,0-19.829-2.008-26.644-6.022c-2.175-1.205-2.864-3.012-2.066-5.421l3.807-11.202c1.015-2.81,2.682-3.653,5.002-2.529
			c5.293,2.409,10.44,3.613,15.442,3.613c7.322,0,10.983-1.687,10.983-5.059c0-1.445-0.833-2.69-2.501-3.734
			c-1.667-1.043-4.459-2.289-8.374-3.733c-2.827-1.043-5.184-1.988-7.068-2.831c-1.885-0.844-3.987-2.067-6.308-3.674
			c-2.319-1.605-4.169-3.353-5.546-5.239c-1.378-1.887-2.537-4.296-3.48-7.227c-0.942-2.932-1.413-6.244-1.413-9.938
			c0-16.622,9.896-24.934,29.688-24.934c9.569,0,17.399,1.847,23.489,5.54c2.176,1.286,2.864,3.092,2.066,5.421l-3.697,10.6
			c-0.942,2.569-2.61,3.413-5.002,2.529c-4.568-1.686-9.353-2.529-14.355-2.529c-2.755,0-4.857,0.28-6.308,0.844
			c-1.45,0.563-2.175,1.726-2.175,3.492c0,1.446,0.815,2.73,2.447,3.855c1.631,1.124,4.404,2.489,8.319,4.095l4.784,1.988
			c0.87,0.36,2.284,1.003,4.241,1.927c1.958,0.923,3.354,1.706,4.188,2.349c0.834,0.642,1.976,1.525,3.426,2.65
			c1.449,1.124,2.501,2.247,3.153,3.372c0.652,1.124,1.359,2.449,2.121,3.975c0.761,1.525,1.286,3.232,1.576,5.119
			c0.29,1.888,0.436,3.955,0.436,6.204C193.436,265.988,191.985,271.128,189.085,275.224z"/>
		<path fill="#1D436F" d="M243.569,199.7c2.32,0,3.879,1.284,4.677,3.854l22.511,76.245c0.508,1.526,0.472,2.771-0.108,3.734
			c-0.58,0.963-1.522,1.445-2.828,1.445h-16.529c-2.538,0-4.133-1.325-4.785-3.976l-2.393-9.273h-20.771l-2.283,9.273
			c-0.652,2.65-2.248,3.976-4.785,3.976h-16.53c-1.305,0-2.247-0.482-2.827-1.445c-0.58-0.964-0.616-2.208-0.108-3.734
			l22.511-76.245c0.798-2.57,2.356-3.854,4.677-3.854H243.569z M240.198,250.289L234,225.478h-0.326l-6.634,24.812H240.198z"/>
		<path fill="#1D436F" d="M314.584,267.393l-13.92-25.896v39.147c0,2.891-1.305,4.336-3.915,4.336h-15.007
			c-2.61,0-3.915-1.445-3.915-4.336v-76.608c0-2.89,1.305-4.335,3.915-4.335h14.463c2.103,0,3.589,0.803,4.459,2.408l16.748,31.921
			l16.747-31.921c0.87-1.605,2.356-2.408,4.459-2.408h14.463c2.61,0,3.915,1.445,3.915,4.335v76.608
			c0,2.891-1.305,4.336-3.915,4.336h-15.007c-2.61,0-3.915-1.445-3.915-4.336v-39.147l-13.92,25.896
			c-0.652,1.206-1.595,1.809-2.827,1.809C316.179,269.201,315.236,268.599,314.584,267.393z"/>
		<path fill="#1D436F" d="M391.579,252.097v11.202h26.752c2.61,0,3.915,1.444,3.915,4.336v13.009c0,2.891-1.305,4.336-3.915,4.336
			h-46.109c-2.61,0-3.915-1.445-3.915-4.336v-76.608c0-2.89,1.305-4.335,3.915-4.335h45.457c2.609,0,3.915,1.445,3.915,4.335v13.01
			c0,2.891-1.306,4.337-3.915,4.337h-26.1v9.996h24.468c2.538,0,3.807,1.446,3.807,4.336v12.167c0,2.811-1.269,4.216-3.807,4.216
			H391.579z"/>
	</g>
	<g>
		<g>
			<path fill="#C9961A" d="M138.55,189.657c-8.839,0-17.15-3.442-23.4-9.693c-6.25-6.25-9.692-14.561-9.692-23.4
				c0-8.839,3.442-17.149,9.692-23.4c6.251-6.25,14.562-9.692,23.4-9.692c8.84,0,17.149,3.442,23.4,9.692
				c6.251,6.251,9.692,14.562,9.692,23.4c0,8.84-3.441,17.15-9.692,23.4C155.7,186.215,147.39,189.657,138.55,189.657z
				 M138.55,127.792c-7.371,0-14.742,2.806-20.354,8.418c-11.224,11.223-11.224,29.484,0,40.708
				c5.437,5.438,12.666,8.432,20.354,8.432c7.689,0,14.918-2.994,20.354-8.432c11.224-11.224,11.224-29.485,0-40.708
				C153.293,130.598,145.922,127.792,138.55,127.792z"/>
		</g>
		<g>
			<path fill="#1D71B8" d="M140.284,78.269c-8.84,0-17.15-3.442-23.401-9.692c-12.902-12.903-12.902-33.897,0-46.801
				c6.251-6.251,14.562-9.693,23.401-9.693c8.839,0,17.149,3.442,23.4,9.693l0,0c12.902,12.903,12.902,33.897,0,46.801
				C157.434,74.826,149.123,78.269,140.284,78.269z M140.284,16.403c-7.372,0-14.743,2.806-20.354,8.418
				c-11.224,11.224-11.224,29.485,0,40.709c11.224,11.223,29.485,11.223,40.709,0c11.223-11.224,11.223-29.485,0-40.709
				C155.026,19.209,147.655,16.403,140.284,16.403z"/>
		</g>
		<g>
			<path fill="#BE1622" d="M249.834,187.818c-8.84,0-17.149-3.442-23.4-9.692c-6.251-6.251-9.693-14.561-9.693-23.4
				s3.442-17.15,9.693-23.4s14.561-9.692,23.4-9.692s17.149,3.442,23.4,9.692l0,0l0,0c6.25,6.25,9.692,14.561,9.692,23.4
				s-3.442,17.149-9.692,23.4C266.983,184.376,258.674,187.818,249.834,187.818z M249.834,125.953
				c-7.371,0-14.743,2.807-20.354,8.418c-5.438,5.437-8.432,12.666-8.432,20.354s2.994,14.918,8.432,20.354
				c11.223,11.224,29.485,11.224,40.709,0c5.437-5.437,8.432-12.666,8.432-20.354s-2.995-14.918-8.432-20.354l0,0
				C264.576,128.76,257.205,125.953,249.834,125.953z"/>
		</g>
		<path fill="#1D436F" d="M220.636,50.112c-14.097,14.097-36.952,14.097-51.049,0l-10.028-10.028
			c-6.605-6.605-17.369-7.095-24.206-0.728c-7.178,6.685-7.328,17.926-0.452,24.803l10.32,10.319
			c14.097,14.097,14.096,36.952-0.001,51.049l-10.027,10.027c-6.606,6.606-7.096,17.369-0.729,24.206
			c6.685,7.178,17.927,7.329,24.803,0.453l10.32-10.32c14.097-14.097,36.952-14.097,51.049,0l10.027,10.028
			c6.606,6.606,17.37,7.096,24.207,0.728c7.177-6.685,7.328-17.926,0.451-24.803l-10.319-10.319
			c-14.097-14.097-14.097-36.952,0-51.049L220.636,50.112z"/>
		<path fill="#1D71B8" d="M322.267,55.506c1.626-0.852,3.348-1.541,5.138-2.069l-22.279-34.049c-0.412-0.63-1.067-1.061-1.809-1.189
			c-0.74-0.127-1.503,0.057-2.103,0.51l-15.152,11.457L275.48,17.522c-0.922-1.1-2.517-1.348-3.728-0.575l-84.79,54.042
			c-0.668,0.426-1.129,1.108-1.273,1.887c-0.146,0.778,0.039,1.582,0.509,2.219l31.325,42.475c0.503,0.682,1.281,1.105,2.127,1.156
			c0.058,0.004,0.115,0.006,0.173,0.006c0.784,0,1.537-0.323,2.078-0.896l68.105-72.172l21.456,19.767
			c0.982-1.537,2.106-2.976,3.357-4.293C316.967,58.874,319.48,56.966,322.267,55.506z"/>
		<polygon fill="#FFFFFF" points="192.613,74.164 220.092,111.425 287.147,40.367 272.709,23.115 		"/>
		<path fill="#1D71B8" d="M196.509,135.428c-19.175,0-34.774-15.6-34.774-34.774c0-19.174,15.6-34.773,34.774-34.773
			c2.333,0,4.665,0.232,6.932,0.691c16.133,3.265,27.843,17.599,27.843,34.082C231.283,119.828,215.684,135.428,196.509,135.428z"/>
		<path fill="#FFFFFF" d="M196.509,72.424c-15.566,0-28.23,12.664-28.23,28.229c0,15.566,12.664,28.23,28.23,28.23
			c15.565,0,28.23-12.664,28.23-28.23c0-13.382-9.504-25.019-22.597-27.669C200.302,72.612,198.407,72.424,196.509,72.424z"/>
		<path fill="#FFFFFF" d="M322.267,55.506l-20.096-30.711l-14.718,11.129l27.367,25.213
			C316.967,58.874,319.48,56.966,322.267,55.506z"/>
		<path fill="#1D71B8" d="M335.391,52.276c-2.774,0-5.451,0.413-7.986,1.16c-1.79,0.528-3.512,1.218-5.138,2.069
			c-2.786,1.46-5.3,3.368-7.446,5.631c-1.251,1.317-2.375,2.756-3.357,4.293c-2.813,4.402-4.451,9.624-4.451,15.225
			c0,15.648,12.73,28.379,28.379,28.379c1.5,0,2.716-1.216,2.716-2.716c0-1.501-1.216-2.717-2.716-2.717
			c-12.653,0-22.946-10.293-22.946-22.946c0-4.179,1.127-8.098,3.089-11.475c0.92-1.583,2.021-3.049,3.279-4.365
			c1.142-1.193,2.406-2.269,3.779-3.195c2.374-1.601,5.064-2.761,7.952-3.385c1.563-0.338,3.183-0.525,4.847-0.525
			c12.651,0,22.945,10.294,22.945,22.945c0,0.884-0.052,1.776-0.153,2.652c-0.174,1.489,0.894,2.838,2.384,3.012
			c1.483,0.17,2.838-0.895,3.012-2.384c0.126-1.083,0.19-2.188,0.19-3.28C363.769,65.007,351.038,52.276,335.391,52.276z"/>
		<circle fill="#1D71B8" cx="196.508" cy="100.653" r="17.698"/>
		<path fill="#1D71B8" d="M287.783,45.462c-11.237,0-20.379-9.142-20.379-20.378c0-11.237,9.142-20.379,20.379-20.379
			c11.236,0,20.378,9.142,20.378,20.379C308.161,36.32,299.02,45.462,287.783,45.462z"/>
		<path fill="#FFFFFF" d="M287.783,10.42c-8.086,0-14.664,6.578-14.664,14.664s6.578,14.663,14.664,14.663
			c8.085,0,14.663-6.577,14.663-14.663S295.868,10.42,287.783,10.42z"/>
		<circle fill="#1D71B8" cx="287.783" cy="25.084" r="9.203"/>
	</g>
</g>
</svg>
